<mxfile host="app.diagrams.net" modified="2023-08-28T01:33:10.507Z" agent="Mozilla/5.0 (Windows NT 10.0; Win64; x64) AppleWebKit/537.36 (KHTML, like Gecko) Chrome/105.0.0.0 Safari/537.36" version="21.6.9" etag="T9QKvP7t_V_RDv3-iYXA" type="github">
  <diagram name="第 1 页" id="HX_RawApARt0LnDAuZSq">
    <mxGraphModel>
      <root>
        <mxCell id="0" />
        <mxCell id="1" parent="0" />
      </root>
    </mxGraphModel>
  </diagram>
</mxfile>
